<?xml version="1.0" encoding="UTF-8" standalone="no"?>
<!-- Created with Inkscape (http://www.inkscape.org/) -->

<svg
   xmlns:dc="http://purl.org/dc/elements/1.1/"
   xmlns:cc="http://creativecommons.org/ns#"
   xmlns:rdf="http://www.w3.org/1999/02/22-rdf-syntax-ns#"
   xmlns:svg="http://www.w3.org/2000/svg"
   xmlns="http://www.w3.org/2000/svg"
   xmlns:sodipodi="http://sodipodi.sourceforge.net/DTD/sodipodi-0.dtd"
   xmlns:inkscape="http://www.inkscape.org/namespaces/inkscape"
   version="1.1"
   id="svg4783"
   xml:space="preserve"
   width="1056"
   height="816"
   viewBox="0 0 1056 816"
   sodipodi:docname="mabinogian_gas_compressor.svg"
   inkscape:version="0.92.2 (5c3e80d, 2017-08-06)"><metadata
     id="metadata4789"><rdf:RDF><cc:Work
         rdf:about=""><dc:format>image/svg+xml</dc:format><dc:type
           rdf:resource="http://purl.org/dc/dcmitype/StillImage" /><dc:title></dc:title></cc:Work></rdf:RDF></metadata><defs
     id="defs4787"><clipPath
       clipPathUnits="userSpaceOnUse"
       id="clipPath4799"><path
         d="M 50.4,54 H 741.6 V 558 H 50.4 Z"
         id="path4797"
         inkscape:connector-curvature="0"
         style="clip-rule:evenodd" /></clipPath><clipPath
       clipPathUnits="userSpaceOnUse"
       id="clipPath4819"><path
         d="M 116.04,107.16 H 704.28 V 520.92 H 116.04 Z"
         id="path4817"
         inkscape:connector-curvature="0"
         style="clip-rule:evenodd" /></clipPath><clipPath
       clipPathUnits="userSpaceOnUse"
       id="clipPath4829"><path
         d="M 50.4,63.48 H 732.72 V 558 H 50.4 Z"
         id="path4827"
         inkscape:connector-curvature="0"
         style="clip-rule:evenodd" /></clipPath><clipPath
       clipPathUnits="userSpaceOnUse"
       id="clipPath4841"><path
         d="M 50.4,63.48 H 732.72 V 558 H 50.4 Z"
         id="path4839"
         inkscape:connector-curvature="0"
         style="clip-rule:evenodd" /></clipPath><clipPath
       clipPathUnits="userSpaceOnUse"
       id="clipPath4853"><path
         d="M 50.4,63.48 H 732.72 V 558 H 50.4 Z"
         id="path4851"
         inkscape:connector-curvature="0"
         style="clip-rule:evenodd" /></clipPath><clipPath
       clipPathUnits="userSpaceOnUse"
       id="clipPath4865"><path
         d="M 50.4,63.48 H 732.72 V 558 H 50.4 Z"
         id="path4863"
         inkscape:connector-curvature="0"
         style="clip-rule:evenodd" /></clipPath><clipPath
       clipPathUnits="userSpaceOnUse"
       id="clipPath4877"><path
         d="M 50.4,63.48 H 732.72 V 558 H 50.4 Z"
         id="path4875"
         inkscape:connector-curvature="0"
         style="clip-rule:evenodd" /></clipPath><clipPath
       clipPathUnits="userSpaceOnUse"
       id="clipPath4889"><path
         d="M 50.4,63.48 H 732.72 V 558 H 50.4 Z"
         id="path4887"
         inkscape:connector-curvature="0"
         style="clip-rule:evenodd" /></clipPath><clipPath
       clipPathUnits="userSpaceOnUse"
       id="clipPath4901"><path
         d="M 50.4,63.48 H 732.72 V 558 H 50.4 Z"
         id="path4899"
         inkscape:connector-curvature="0"
         style="clip-rule:evenodd" /></clipPath><clipPath
       clipPathUnits="userSpaceOnUse"
       id="clipPath4913"><path
         d="M 50.4,63.48 H 732.72 V 558 H 50.4 Z"
         id="path4911"
         inkscape:connector-curvature="0"
         style="clip-rule:evenodd" /></clipPath><clipPath
       clipPathUnits="userSpaceOnUse"
       id="clipPath4925"><path
         d="M 50.4,63.48 H 732.72 V 558 H 50.4 Z"
         id="path4923"
         inkscape:connector-curvature="0"
         style="clip-rule:evenodd" /></clipPath><clipPath
       clipPathUnits="userSpaceOnUse"
       id="clipPath4937"><path
         d="M 50.4,63.48 H 732.72 V 558 H 50.4 Z"
         id="path4935"
         inkscape:connector-curvature="0"
         style="clip-rule:evenodd" /></clipPath><clipPath
       clipPathUnits="userSpaceOnUse"
       id="clipPath4949"><path
         d="M 50.4,63.48 H 732.72 V 558 H 50.4 Z"
         id="path4947"
         inkscape:connector-curvature="0"
         style="clip-rule:evenodd" /></clipPath><clipPath
       clipPathUnits="userSpaceOnUse"
       id="clipPath4961"><path
         d="M 50.4,63.48 H 732.72 V 558 H 50.4 Z"
         id="path4959"
         inkscape:connector-curvature="0"
         style="clip-rule:evenodd" /></clipPath><clipPath
       clipPathUnits="userSpaceOnUse"
       id="clipPath4973"><path
         d="M 50.4,63.48 H 732.72 V 558 H 50.4 Z"
         id="path4971"
         inkscape:connector-curvature="0"
         style="clip-rule:evenodd" /></clipPath><clipPath
       clipPathUnits="userSpaceOnUse"
       id="clipPath4985"><path
         d="M 50.4,63.48 H 732.72 V 558 H 50.4 Z"
         id="path4983"
         inkscape:connector-curvature="0"
         style="clip-rule:evenodd" /></clipPath><clipPath
       clipPathUnits="userSpaceOnUse"
       id="clipPath4997"><path
         d="M 50.4,63.48 H 732.72 V 558 H 50.4 Z"
         id="path4995"
         inkscape:connector-curvature="0"
         style="clip-rule:evenodd" /></clipPath><clipPath
       clipPathUnits="userSpaceOnUse"
       id="clipPath5009"><path
         d="M 50.4,63.48 H 732.72 V 558 H 50.4 Z"
         id="path5007"
         inkscape:connector-curvature="0"
         style="clip-rule:evenodd" /></clipPath><clipPath
       clipPathUnits="userSpaceOnUse"
       id="clipPath5021"><path
         d="M 50.4,63.48 H 732.72 V 558 H 50.4 Z"
         id="path5019"
         inkscape:connector-curvature="0"
         style="clip-rule:evenodd" /></clipPath><clipPath
       clipPathUnits="userSpaceOnUse"
       id="clipPath5033"><path
         d="M 50.4,63.48 H 732.72 V 558 H 50.4 Z"
         id="path5031"
         inkscape:connector-curvature="0"
         style="clip-rule:evenodd" /></clipPath><clipPath
       clipPathUnits="userSpaceOnUse"
       id="clipPath5045"><path
         d="M 50.4,63.48 H 732.72 V 558 H 50.4 Z"
         id="path5043"
         inkscape:connector-curvature="0"
         style="clip-rule:evenodd" /></clipPath><clipPath
       clipPathUnits="userSpaceOnUse"
       id="clipPath5057"><path
         d="M 50.4,63.48 H 732.72 V 558 H 50.4 Z"
         id="path5055"
         inkscape:connector-curvature="0"
         style="clip-rule:evenodd" /></clipPath><clipPath
       clipPathUnits="userSpaceOnUse"
       id="clipPath5069"><path
         d="M 50.4,63.48 H 732.72 V 558 H 50.4 Z"
         id="path5067"
         inkscape:connector-curvature="0"
         style="clip-rule:evenodd" /></clipPath><clipPath
       clipPathUnits="userSpaceOnUse"
       id="clipPath5083"><path
         d="M 50.4,54 H 741.6 V 558 H 50.4 Z"
         id="path5081"
         inkscape:connector-curvature="0"
         style="clip-rule:evenodd" /></clipPath></defs><sodipodi:namedview
     pagecolor="#ffffff"
     bordercolor="#666666"
     borderopacity="1"
     objecttolerance="10"
     gridtolerance="10"
     guidetolerance="10"
     inkscape:pageopacity="0"
     inkscape:pageshadow="2"
     inkscape:window-width="1333"
     inkscape:window-height="871"
     id="namedview4785"
     showgrid="false"
     inkscape:zoom="0.71568627"
     inkscape:cx="528"
     inkscape:cy="408"
     inkscape:window-x="0"
     inkscape:window-y="27"
     inkscape:window-maximized="0"
     inkscape:current-layer="g4791" /><g
     id="g4791"
     inkscape:groupmode="layer"
     inkscape:label="mabinogian_gas_compressor.csv"
     transform="matrix(1.3333333,0,0,-1.3333333,0,816)"><g
       id="g4793"><g
         id="g4795"
         clip-path="url(#clipPath4799)"><path
           d="m 50.4,63.406 h 682.43 v 494.59 H 50.4 Z"
           style="fill:#ffffff;fill-opacity:1;fill-rule:evenodd;stroke:none"
           id="path4801"
           inkscape:connector-curvature="0" /></g></g><path
       d="M 116.13,166.8 H 703.55 M 116.13,225.84 H 703.55 M 116.13,284.88 H 703.55 M 116.13,343.92 H 703.55 M 116.13,402.84 H 703.55 M 116.13,461.88 H 703.55 M 116.13,520.91 H 703.55"
       style="fill:none;stroke:#d9d9d9;stroke-width:0.75;stroke-linecap:butt;stroke-linejoin:round;stroke-miterlimit:10;stroke-dasharray:none;stroke-opacity:1"
       id="path4803"
       inkscape:connector-curvature="0" /><path
       d="m 181.44,520.91 v -413.1 m 65.28,413.1 V 107.81 M 312,520.91 v -413.1 m 65.16,413.1 v -413.1 m 65.28,413.1 v -413.1 m 65.28,413.1 V 107.81 M 573,520.91 v -413.1 m 65.28,413.1 v -413.1 m 65.27,413.1 v -413.1"
       style="fill:none;stroke:#d9d9d9;stroke-width:0.75;stroke-linecap:butt;stroke-linejoin:round;stroke-miterlimit:10;stroke-dasharray:none;stroke-opacity:1"
       id="path4805"
       inkscape:connector-curvature="0" /><path
       d="m 116.13,107.81 h 587.42 v 413.1 H 116.13 Z"
       style="fill:none;stroke:#000000;stroke-width:0.75;stroke-linecap:butt;stroke-linejoin:round;stroke-miterlimit:10;stroke-dasharray:none;stroke-opacity:1"
       id="path4807"
       inkscape:connector-curvature="0" /><path
       d="m 116.13,107.81 v 413.1"
       style="fill:none;stroke:#bfbfbf;stroke-width:0.75;stroke-linecap:butt;stroke-linejoin:round;stroke-miterlimit:10;stroke-dasharray:none;stroke-opacity:1"
       id="path4809"
       inkscape:connector-curvature="0" /><path
       d="M 116.13,107.81 H 703.55"
       style="fill:none;stroke:#bfbfbf;stroke-width:0.75;stroke-linecap:butt;stroke-linejoin:round;stroke-miterlimit:10;stroke-dasharray:none;stroke-opacity:1"
       id="path4811"
       inkscape:connector-curvature="0" /><g
       id="g4813"><g
         id="g4815"
         clip-path="url(#clipPath4819)"><path
           d="m 116.13,107.81 6.51,111.55 h 58.8 6.48 6.48 6.6 6.48 6.6 6.48 6.48 6.6 6.48 6.6 6.48 l 6.48,1.2 6.6,1.92 6.48,2.28 6.6,3.24 6.48,3.24 6.48,2.88 6.6,2.88 6.48,3 6.6,2.88 6.48,3.12 6.48,3 6.6,2.52 6.48,2.4 1.68,0.96 1.56,0.96 1.68,0.96 1.56,0.84 1.68,0.84 1.68,0.72 1.56,0.84 1.68,0.96 1.56,0.84 1.68,1.08 1.68,0.96 1.56,0.84 1.68,0.96 1.56,0.96 1.68,1.08 1.68,1.32 1.56,1.2 1.68,1.32 1.56,0.96 1.68,1.08 1.68,1.44 1.56,1.44 1.68,1.56 v 55.08 l 1.56,0.12 1.68,0.48 1.68,0.12 1.56,0.48 1.68,0.24 6.48,1.44 6.6,0.96 6.48,1.56 6.48,2.16 6.6,3.36 6.48,3.36 6.6,3.24 6.48,3.12 6.48,2.76 6.6,3 6.48,2.88 6.48,2.76 6.6,2.64 6.48,3 6.6,3 6.48,2.88 6.48,2.88 6.6,2.88 6.48,2.88 6.6,2.64 6.48,3 6.48,2.64 6.6,3 6.48,2.28 6.6,2.64 6.48,2.52 6.48,3.12 6.6,3.84 6.48,4.08 6.6,3.72 6.48,3.6 6.48,3.36 6.6,4.8 6.48,5.64 1.68,1.32 1.56,1.32 1.68,1.32 1.56,1.44 1.68,1.32 1.68,1.2 1.56,1.44 1.66,1.53"
           style="fill:none;stroke:#4472c4;stroke-width:1.5;stroke-linecap:round;stroke-linejoin:round;stroke-miterlimit:10;stroke-dasharray:none;stroke-opacity:1"
           id="path4821"
           inkscape:connector-curvature="0" /></g></g><g
       id="g4823"><g
         id="g4825"
         clip-path="url(#clipPath4829)"><text
           transform="matrix(1,0,0,-1,103.25,105.19)"
           style="font-variant:normal;font-weight:bold;font-size:9px;font-family:Calibri;-inkscape-font-specification:Calibri-Bold;writing-mode:lr-tb;fill:#595959;fill-opacity:1;fill-rule:nonzero;stroke:none"
           id="text4833"><tspan
             x="0"
             y="0"
             id="tspan4831">0</tspan></text>
</g></g><g
       id="g4835"><g
         id="g4837"
         clip-path="url(#clipPath4841)"><text
           transform="matrix(1,0,0,-1,82.68,164.21)"
           style="font-variant:normal;font-weight:bold;font-size:9px;font-family:Calibri;-inkscape-font-specification:Calibri-Bold;writing-mode:lr-tb;fill:#595959;fill-opacity:1;fill-rule:nonzero;stroke:none"
           id="text4845"><tspan
             x="0 4.5630002 9.1260004 11.403 15.966 20.528999"
             y="0"
             sodipodi:role="line"
             id="tspan4843">50,000</tspan></text>
</g></g><g
       id="g4847"><g
         id="g4849"
         clip-path="url(#clipPath4853)"><text
           transform="matrix(1,0,0,-1,78.12,223.22)"
           style="font-variant:normal;font-weight:bold;font-size:9px;font-family:Calibri;-inkscape-font-specification:Calibri-Bold;writing-mode:lr-tb;fill:#595959;fill-opacity:1;fill-rule:nonzero;stroke:none"
           id="text4857"><tspan
             x="0 4.5630002 9.1260004 13.689 15.957 20.52 25.083"
             y="0"
             sodipodi:role="line"
             id="tspan4855">100,000</tspan></text>
</g></g><g
       id="g4859"><g
         id="g4861"
         clip-path="url(#clipPath4865)"><text
           transform="matrix(1,0,0,-1,78.12,282.26)"
           style="font-variant:normal;font-weight:bold;font-size:9px;font-family:Calibri;-inkscape-font-specification:Calibri-Bold;writing-mode:lr-tb;fill:#595959;fill-opacity:1;fill-rule:nonzero;stroke:none"
           id="text4869"><tspan
             x="0 4.5630002 9.1260004 13.689 15.957 20.52 25.083"
             y="0"
             sodipodi:role="line"
             id="tspan4867">150,000</tspan></text>
</g></g><g
       id="g4871"><g
         id="g4873"
         clip-path="url(#clipPath4877)"><text
           transform="matrix(1,0,0,-1,78.12,341.28)"
           style="font-variant:normal;font-weight:bold;font-size:9px;font-family:Calibri;-inkscape-font-specification:Calibri-Bold;writing-mode:lr-tb;fill:#595959;fill-opacity:1;fill-rule:nonzero;stroke:none"
           id="text4881"><tspan
             x="0 4.5630002 9.1260004 13.689 15.957 20.52 25.083"
             y="0"
             sodipodi:role="line"
             id="tspan4879">200,000</tspan></text>
</g></g><g
       id="g4883"><g
         id="g4885"
         clip-path="url(#clipPath4889)"><text
           transform="matrix(1,0,0,-1,78.12,400.32)"
           style="font-variant:normal;font-weight:bold;font-size:9px;font-family:Calibri;-inkscape-font-specification:Calibri-Bold;writing-mode:lr-tb;fill:#595959;fill-opacity:1;fill-rule:nonzero;stroke:none"
           id="text4893"><tspan
             x="0 4.5630002 9.1260004 13.689 15.957 20.52 25.083"
             y="0"
             sodipodi:role="line"
             id="tspan4891">250,000</tspan></text>
</g></g><g
       id="g4895"><g
         id="g4897"
         clip-path="url(#clipPath4901)"><text
           transform="matrix(1,0,0,-1,78.12,459.34)"
           style="font-variant:normal;font-weight:bold;font-size:9px;font-family:Calibri;-inkscape-font-specification:Calibri-Bold;writing-mode:lr-tb;fill:#595959;fill-opacity:1;fill-rule:nonzero;stroke:none"
           id="text4905"><tspan
             x="0 4.5630002 9.1260004 13.689 15.957 20.52 25.083"
             y="0"
             sodipodi:role="line"
             id="tspan4903">300,000</tspan></text>
</g></g><g
       id="g4907"><g
         id="g4909"
         clip-path="url(#clipPath4913)"><text
           transform="matrix(1,0,0,-1,78.12,518.35)"
           style="font-variant:normal;font-weight:bold;font-size:9px;font-family:Calibri;-inkscape-font-specification:Calibri-Bold;writing-mode:lr-tb;fill:#595959;fill-opacity:1;fill-rule:nonzero;stroke:none"
           id="text4917"><tspan
             x="0 4.5630002 9.1260004 13.689 15.957 20.52 25.083"
             y="0"
             sodipodi:role="line"
             id="tspan4915">350,000</tspan></text>
</g></g><g
       id="g4919"><g
         id="g4921"
         clip-path="url(#clipPath4925)"><text
           transform="matrix(1,0,0,-1,113.88,93.48)"
           style="font-variant:normal;font-weight:bold;font-size:9px;font-family:Calibri;-inkscape-font-specification:Calibri-Bold;writing-mode:lr-tb;fill:#595959;fill-opacity:1;fill-rule:nonzero;stroke:none"
           id="text4929"><tspan
             x="0"
             y="0"
             id="tspan4927">0</tspan></text>
</g></g><g
       id="g4931"><g
         id="g4933"
         clip-path="url(#clipPath4937)"><text
           transform="matrix(1,0,0,-1,163.15,93.48)"
           style="font-variant:normal;font-weight:bold;font-size:9px;font-family:Calibri;-inkscape-font-specification:Calibri-Bold;writing-mode:lr-tb;fill:#595959;fill-opacity:1;fill-rule:nonzero;stroke:none"
           id="text4941"><tspan
             x="0 4.5630002 6.8400002 11.403 15.966 20.528999 22.914 27.476999 32.040001"
             y="0"
             sodipodi:role="line"
             id="tspan4939">1,000,000</tspan></text>
</g></g><g
       id="g4943"><g
         id="g4945"
         clip-path="url(#clipPath4949)"><text
           transform="matrix(1,0,0,-1,228.43,93.48)"
           style="font-variant:normal;font-weight:bold;font-size:9px;font-family:Calibri;-inkscape-font-specification:Calibri-Bold;writing-mode:lr-tb;fill:#595959;fill-opacity:1;fill-rule:nonzero;stroke:none"
           id="text4953"><tspan
             x="0 4.5630002 6.8400002 11.403 15.966 20.528999 22.914 27.476999 32.040001"
             y="0"
             sodipodi:role="line"
             id="tspan4951">2,000,000</tspan></text>
</g></g><g
       id="g4955"><g
         id="g4957"
         clip-path="url(#clipPath4961)"><text
           transform="matrix(1,0,0,-1,293.71,93.48)"
           style="font-variant:normal;font-weight:bold;font-size:9px;font-family:Calibri;-inkscape-font-specification:Calibri-Bold;writing-mode:lr-tb;fill:#595959;fill-opacity:1;fill-rule:nonzero;stroke:none"
           id="text4965"><tspan
             x="0 4.5630002 6.8400002 11.403 15.966 20.528999 22.914 27.476999 32.040001"
             y="0"
             sodipodi:role="line"
             id="tspan4963">3,000,000</tspan></text>
</g></g><g
       id="g4967"><g
         id="g4969"
         clip-path="url(#clipPath4973)"><text
           transform="matrix(1,0,0,-1,358.99,93.48)"
           style="font-variant:normal;font-weight:bold;font-size:9px;font-family:Calibri;-inkscape-font-specification:Calibri-Bold;writing-mode:lr-tb;fill:#595959;fill-opacity:1;fill-rule:nonzero;stroke:none"
           id="text4977"><tspan
             x="0 4.5630002 6.8400002 11.403 15.966 20.528999 22.914 27.476999 32.040001"
             y="0"
             sodipodi:role="line"
             id="tspan4975">4,000,000</tspan></text>
</g></g><g
       id="g4979"><g
         id="g4981"
         clip-path="url(#clipPath4985)"><text
           transform="matrix(1,0,0,-1,424.27,93.48)"
           style="font-variant:normal;font-weight:bold;font-size:9px;font-family:Calibri;-inkscape-font-specification:Calibri-Bold;writing-mode:lr-tb;fill:#595959;fill-opacity:1;fill-rule:nonzero;stroke:none"
           id="text4989"><tspan
             x="0 4.5630002 6.8400002 11.403 15.966 20.528999 22.914 27.476999 32.040001"
             y="0"
             sodipodi:role="line"
             id="tspan4987">5,000,000</tspan></text>
</g></g><g
       id="g4991"><g
         id="g4993"
         clip-path="url(#clipPath4997)"><text
           transform="matrix(1,0,0,-1,489.53,93.48)"
           style="font-variant:normal;font-weight:bold;font-size:9px;font-family:Calibri;-inkscape-font-specification:Calibri-Bold;writing-mode:lr-tb;fill:#595959;fill-opacity:1;fill-rule:nonzero;stroke:none"
           id="text5001"><tspan
             x="0 4.5630002 6.8400002 11.403 15.966 20.528999 22.914 27.476999 32.040001"
             y="0"
             sodipodi:role="line"
             id="tspan4999">6,000,000</tspan></text>
</g></g><g
       id="g5003"><g
         id="g5005"
         clip-path="url(#clipPath5009)"><text
           transform="matrix(1,0,0,-1,554.81,93.48)"
           style="font-variant:normal;font-weight:bold;font-size:9px;font-family:Calibri;-inkscape-font-specification:Calibri-Bold;writing-mode:lr-tb;fill:#595959;fill-opacity:1;fill-rule:nonzero;stroke:none"
           id="text5013"><tspan
             x="0 4.5630002 6.8400002 11.403 15.966 20.528999 22.914 27.476999 32.040001"
             y="0"
             sodipodi:role="line"
             id="tspan5011">7,000,000</tspan></text>
</g></g><g
       id="g5015"><g
         id="g5017"
         clip-path="url(#clipPath5021)"><text
           transform="matrix(1,0,0,-1,620.09,93.48)"
           style="font-variant:normal;font-weight:bold;font-size:9px;font-family:Calibri;-inkscape-font-specification:Calibri-Bold;writing-mode:lr-tb;fill:#595959;fill-opacity:1;fill-rule:nonzero;stroke:none"
           id="text5025"><tspan
             x="0 4.5630002 6.8400002 11.403 15.966 20.528999 22.914 27.476999 32.040001"
             y="0"
             sodipodi:role="line"
             id="tspan5023">8,000,000</tspan></text>
</g></g><g
       id="g5027"><g
         id="g5029"
         clip-path="url(#clipPath5033)"><text
           transform="matrix(1,0,0,-1,685.37,93.48)"
           style="font-variant:normal;font-weight:bold;font-size:9px;font-family:Calibri;-inkscape-font-specification:Calibri-Bold;writing-mode:lr-tb;fill:#595959;fill-opacity:1;fill-rule:nonzero;stroke:none"
           id="text5037"><tspan
             x="0 4.5630002 6.8400002 11.403 15.966 20.528999 22.914 27.476999 32.040001"
             y="0"
             sodipodi:role="line"
             id="tspan5035">9,000,000</tspan></text>
</g></g><g
       id="g5039"><g
         id="g5041"
         clip-path="url(#clipPath5045)"><text
           transform="matrix(-4.4e-8,1,1,4.4e-8,72.384,277.63)"
           style="font-variant:normal;font-weight:bold;font-size:9.96000004px;font-family:Calibri;-inkscape-font-specification:Calibri-Bold;writing-mode:lr-tb;fill:#595959;fill-opacity:1;fill-rule:nonzero;stroke:none"
           id="text5049"><tspan
             x="0 4.57164 9.9500399 14.97984 17.380199 19.631161 25.288441 30.208679 33.664799 38.71452 40.965481 44.102879 48.784081 56.931358 60.27792 64.600563 69.988922"
             y="0"
             sodipodi:role="line"
             id="tspan5047">Fuel Rate (Sm³/d)</tspan></text>
</g></g><g
       id="g5051"><g
         id="g5053"
         clip-path="url(#clipPath5057)"><text
           transform="matrix(1,0,0,-1,374.4,78.528)"
           style="font-variant:normal;font-weight:bold;font-size:9.96000004px;font-family:Calibri;-inkscape-font-specification:Calibri-Bold;writing-mode:lr-tb;fill:#595959;fill-opacity:1;fill-rule:nonzero;stroke:none"
           id="text5061"><tspan
             x="0 6.3445201 11.26476 15.2388 17.50968 23.137079 28.05732 31.513439 36.56316 38.814121 41.951519 46.632721 54.779999 58.12656 62.4492 67.837563"
             y="0"
             sodipodi:role="line"
             id="tspan5059">Gas Rate (Sm³/d)</tspan></text>
</g></g><g
       id="g5063"><g
         id="g5065"
         clip-path="url(#clipPath5069)"><text
           transform="matrix(1,0,0,-1,295.2,537.17)"
           style="font-variant:normal;font-weight:bold;font-size:14.03999996px;font-family:Calibri;-inkscape-font-specification:Calibri-Bold;writing-mode:lr-tb;fill:#595959;fill-opacity:1;fill-rule:nonzero;stroke:none"
           id="text5073"><tspan
             x="0 11.41452 18.350281 25.889759 29.385719 36.925201 44.478722 51.133678 54.587521 61.523281 69.090843 76.082764 81.811081 89.364601 100.77912 108.3186 113.13432 120.19644 125.7282 131.33015 138.91176 143.82576 150.81767 155.59128 162.42876 169.96825 177.42348 180.87732 187.85519"
             y="0"
             sodipodi:role="line"
             id="tspan5071">mabinogian_compressor_tabular</tspan></text>
</g></g><path
       d="M 295.16,535.62 H 391.58 488 v -0.96 h -96.42 -96.42 z"
       style="fill:#595959;fill-opacity:1;fill-rule:evenodd;stroke:none"
       id="path5075"
       inkscape:connector-curvature="0" /><g
       id="g5077"><g
         id="g5079"
         clip-path="url(#clipPath5083)"><path
           d="m 50.4,63.406 h 682.43 v 494.59 H 50.4 Z"
           style="fill:none;stroke:#000000;stroke-width:0.75;stroke-linecap:butt;stroke-linejoin:round;stroke-miterlimit:10;stroke-dasharray:none;stroke-opacity:1"
           id="path5085"
           inkscape:connector-curvature="0" /></g></g></g></svg>