<svg width="64" height="54" viewBox="0 0 64 54" fill="none" xmlns="http://www.w3.org/2000/svg">
<path d="M43.5882 0H0.000560847V33.7589C-0.019405 36.4107 0.493893 39.0401 1.5109 41.4956C2.5279 43.9511 4.02851 46.184 5.92612 48.0657C7.82373 49.9473 10.0808 51.4405 12.5673 52.459C15.0537 53.4775 17.7203 54.0012 20.4133 54H64V20.122C63.9967 14.7901 61.8458 9.67717 58.0192 5.90491C54.1926 2.13264 49.0027 0.0090487 43.5882 0ZM54.8357 44.9782H45.7593V33.7624H36.5941V44.9782H27.4662V27.0013H18.3008V44.7784C15.7122 44.2948 13.3788 42.9302 11.7088 40.9233C10.0388 38.9165 9.13865 36.3953 9.16583 33.8009V9.02528H43.5872C46.5721 9.03131 49.4326 10.203 51.5412 12.2834C53.6498 14.3637 54.8343 17.1827 54.8347 20.122L54.8357 44.9782Z" fill="#007079"/>
</svg>
