<svg width="270" height="70" viewBox="0 0 270 70" fill="none" xmlns="http://www.w3.org/2000/svg">
<g clip-path="url(#clip0_6104_171674)">
<path d="M51.5882 8H8.00056V41.7589C7.9806 44.4107 8.49389 47.0401 9.5109 49.4956C10.5279 51.9511 12.0285 54.184 13.9261 56.0657C15.8237 57.9473 18.0808 59.4405 20.5673 60.459C23.0537 61.4775 25.7203 62.0012 28.4133 62H72V28.122C71.9967 22.7901 69.8458 17.6772 66.0192 13.9049C62.1926 10.1326 57.0027 8.00905 51.5882 8ZM62.8357 52.9782H53.7593V41.7624H44.5941V52.9782H35.4662V35.0013H26.3008V52.7784C23.7122 52.2948 21.3788 50.9302 19.7088 48.9233C18.0388 46.9165 17.1386 44.3953 17.1658 41.8009V17.0253H51.5872C54.5721 17.0313 57.4326 18.203 59.5412 20.2834C61.6498 22.3637 62.8343 25.1827 62.8347 28.122L62.8357 52.9782Z" fill="#007079"/>
<path d="M124.92 41.3371V44.0756C124.926 44.2145 124.904 44.3531 124.856 44.4836C124.808 44.614 124.734 44.7335 124.639 44.8354C124.543 44.9372 124.429 45.0193 124.302 45.0768C124.175 45.1344 124.037 45.1663 123.898 45.1707H96.6858C97.5516 50.9604 101.642 55.5762 108.878 55.5762C112.889 55.5762 116.507 54.1676 120.205 51.5079C120.909 51.0384 121.384 51.1163 121.778 51.7427L123.901 54.8719C124.088 55.1005 124.176 55.3932 124.147 55.6863C124.117 55.9794 123.973 56.249 123.744 56.4365C119.605 59.9682 114.332 61.9109 108.878 61.9135C97.0003 61.9135 90 54.0896 90 43.3713C90 31.5579 98.2589 24.3613 108.408 24.3613C118.628 24.3605 124.92 32.4182 124.92 41.3371ZM118.078 39.381C117.762 34.7651 114.459 30.6206 108.245 30.6206C102.425 30.6206 98.177 33.9846 96.9184 39.381H118.078Z" fill="#3D3D3D"/>
<path d="M128.852 35.0778C128.852 18.7555 139.861 8.0083 154.493 8.0083C158.262 7.91126 162.004 8.666 165.438 10.2157C168.871 11.7655 171.907 14.0698 174.315 16.9552C174.513 17.1743 174.615 17.4621 174.6 17.756C174.586 18.0499 174.455 18.326 174.236 18.5242L174.158 18.6031L170.618 21.5063C170.458 21.6976 170.229 21.8205 169.981 21.8497C169.732 21.8789 169.482 21.8121 169.281 21.6631C169.184 21.5738 169.104 21.4675 169.045 21.3495C167.292 19.1964 165.073 17.4643 162.553 16.2823C160.034 15.1003 157.279 14.4988 154.493 14.5225C143.639 14.5225 135.773 23.3109 135.773 35.0034C135.773 46.6958 143.639 55.4851 154.493 55.4851C157.281 55.5262 160.042 54.9324 162.564 53.7492C165.087 52.5659 167.303 50.8245 169.045 48.6581C169.1 48.5485 169.176 48.451 169.27 48.3715C169.364 48.292 169.473 48.2321 169.59 48.1955C169.708 48.1588 169.831 48.1462 169.954 48.1582C170.077 48.1703 170.195 48.2068 170.303 48.2656C170.382 48.3436 170.539 48.4225 170.618 48.5013L174.079 51.3256C174.309 51.4718 174.471 51.7027 174.53 51.9675C174.589 52.2324 174.54 52.5097 174.394 52.7387L174.315 52.8167C169.595 58.5451 163.145 61.9984 154.493 61.9984C139.863 62.1508 128.852 51.4001 128.852 35.0778Z" fill="#3D3D3D"/>
<path d="M176.992 42.9822C176.992 31.5596 185.566 24.2832 195.4 24.2832C200.355 24.2832 204.917 26.1614 207.277 29.2906V27.726C207.266 27.4524 207.344 27.1825 207.501 26.9569C207.657 26.7312 207.882 26.5619 208.143 26.4742L212.39 24.9096C213.176 24.5959 213.648 24.9096 213.648 25.7698V59.9589C213.654 60.0977 213.632 60.2364 213.584 60.3668C213.536 60.4972 213.462 60.6168 213.367 60.7186C213.272 60.8205 213.157 60.9025 213.03 60.9601C212.903 61.0176 212.765 61.0495 212.626 61.0539H208.378C208.238 61.0598 208.099 61.0381 207.968 60.99C207.837 60.9419 207.716 60.8685 207.614 60.7739C207.512 60.6793 207.429 60.5654 207.371 60.4389C207.313 60.3124 207.281 60.1758 207.277 60.0368V56.9856C205.153 59.5673 200.198 61.9151 195.086 61.9151C183.6 61.8362 176.992 53.2309 176.992 42.9822ZM207.275 42.9822C207.275 34.7667 202.084 30.5425 195.398 30.5425C189.027 30.5425 183.521 34.7667 183.521 42.9822C183.521 51.1977 189.027 55.4999 195.398 55.4999C202.162 55.5016 207.275 51.2747 207.275 42.9822Z" fill="#3D3D3D"/>
<path d="M220.649 61.0516C220.509 61.0575 220.37 61.0358 220.239 60.9877C220.107 60.9396 219.987 60.8662 219.885 60.7716C219.783 60.677 219.7 60.5632 219.642 60.4367C219.584 60.3101 219.552 60.1735 219.548 60.0346V11.2937C219.537 11.0203 219.616 10.7508 219.772 10.5254C219.927 10.3 220.152 10.1307 220.413 10.0427L224.661 8.47897C225.447 8.16623 225.919 8.55781 225.919 9.33923V59.9566C225.925 60.0954 225.903 60.2341 225.855 60.3645C225.807 60.4949 225.733 60.6145 225.638 60.7163C225.543 60.8182 225.428 60.9002 225.301 60.9578C225.174 61.0153 225.036 61.0472 224.897 61.0516H220.649Z" fill="#3D3D3D"/>
<path d="M231.266 43.0621C231.266 32.2659 239.131 24.2852 249.828 24.2852C254.627 24.2852 258.559 25.537 261.391 27.6492C261.516 27.7307 261.623 27.8362 261.706 27.9593C261.79 28.0824 261.848 28.2209 261.877 28.3665C261.907 28.5121 261.906 28.6621 261.877 28.8077C261.847 28.9533 261.789 29.0916 261.705 29.2146L259.74 32.5786C259.649 32.8221 259.468 33.0221 259.234 33.1382C259.001 33.2543 258.731 33.2779 258.481 33.2041C258.402 33.2041 258.323 33.1261 258.245 33.0482C255.934 31.3979 253.144 30.5459 250.3 30.6224C242.434 30.6224 237.872 36.1774 237.872 43.1401C237.872 50.1028 242.434 55.6578 250.3 55.6578C253.193 55.7352 256.034 54.885 258.403 53.2329C258.519 53.1556 258.651 53.1042 258.789 53.0821C258.926 53.0599 259.067 53.0677 259.202 53.1048C259.336 53.1419 259.461 53.2075 259.568 53.297C259.674 53.3866 259.76 53.498 259.82 53.6236C259.819 53.634 259.821 53.6442 259.825 53.6539C259.829 53.6635 259.835 53.6722 259.842 53.6796C259.849 53.6869 259.858 53.6927 259.868 53.6967C259.877 53.7006 259.888 53.7026 259.898 53.7025L261.707 56.9876C262.022 57.614 262.101 58.0047 261.865 58.2394C259.584 60.0388 255.1 61.9188 249.83 61.9188C239.131 61.8364 231.266 53.8566 231.266 43.0621Z" fill="#3D3D3D"/>
<path d="M248.499 16.9472C248.443 16.9434 248.39 16.9194 248.35 16.8799C248.311 16.8403 248.286 16.7878 248.282 16.732V9.40155H246.218C246.161 9.39767 246.108 9.37366 246.068 9.33395C246.028 9.29423 246.004 9.24148 246 9.18545V8.21522C246.004 8.15928 246.028 8.10666 246.068 8.06709C246.108 8.02752 246.161 8.00367 246.218 8H251.978C252.034 8.00388 252.087 8.02781 252.127 8.06736C252.167 8.10691 252.191 8.15942 252.195 8.21522V9.18545C252.191 9.2414 252.167 9.29413 252.127 9.33387C252.087 9.3736 252.034 9.39765 251.978 9.40155H249.912V16.732C249.908 16.7878 249.884 16.8403 249.844 16.8799C249.805 16.9194 249.752 16.9434 249.695 16.9472H248.499ZM253.39 16.9472C253.334 16.9434 253.281 16.9194 253.241 16.8799C253.201 16.8403 253.177 16.7878 253.173 16.732V8.21522C253.177 8.15942 253.201 8.10691 253.241 8.06736C253.281 8.02781 253.334 8.00388 253.39 8H254.368C254.424 8.00367 254.478 8.02752 254.518 8.06709C254.558 8.10666 254.582 8.15928 254.586 8.21522L257.737 13.9289L260.889 8.21522C260.893 8.15942 260.917 8.10691 260.957 8.06736C260.997 8.02781 261.05 8.00388 261.106 8H262.084C262.141 8.00367 262.194 8.02752 262.234 8.06709C262.274 8.10666 262.298 8.15928 262.302 8.21522V16.732C262.298 16.788 262.274 16.8406 262.234 16.8801C262.194 16.9197 262.141 16.9436 262.084 16.9472H260.998C260.941 16.9436 260.888 16.9197 260.848 16.8801C260.808 16.8406 260.784 16.788 260.78 16.732V11.0183L258.172 15.655C258.168 15.7108 258.144 15.7634 258.104 15.8029C258.064 15.8425 258.011 15.8664 257.955 15.8703H257.52C257.464 15.8666 257.411 15.8428 257.371 15.8032C257.33 15.7636 257.306 15.711 257.302 15.655L254.694 11.0183V16.732C254.69 16.7878 254.666 16.8403 254.626 16.8799C254.587 16.9194 254.534 16.9434 254.477 16.9472H253.39Z" fill="#3D3D3D"/>
</g>
<defs>
<clipPath id="clip0_6104_171674">
<rect width="254" height="54" fill="white" transform="translate(8 8)"/>
</clipPath>
</defs>
</svg>
